<?xml version="1.0" standalone="no"?>
<!DOCTYPE svg PUBLIC "-//W3C//DTD SVG 20010904//EN"
 "http://www.w3.org/TR/2001/REC-SVG-20010904/DTD/svg10.dtd">
<svg version="1.0" xmlns="http://www.w3.org/2000/svg"
 width="1200.000000pt" height="1200.000000pt" viewBox="0 0 1200.000000 1200.000000"
 preserveAspectRatio="xMidYMid meet">
<metadata>
Created by potrace 1.11, written by Peter Selinger 2001-2013
</metadata>
<g transform="translate(0.000000,1200.000000) scale(0.100000,-0.100000)"
fill="#000000" stroke="none">
<path d="M2 7018 l3 -1713 452 0 453 0 2 720 3 720 453 0 c398 0 452 -2 446
-15 -29 -74 -47 -369 -29 -477 3 -18 7 -45 9 -60 9 -58 25 -129 34 -153 5 -14
10 -27 10 -30 0 -3 5 -18 11 -33 6 -16 11 -30 11 -33 0 -2 18 -42 40 -89 44
-92 124 -209 192 -281 50 -53 172 -155 208 -174 14 -7 27 -16 30 -20 12 -18
224 -112 304 -135 153 -44 192 -48 401 -49 166 0 217 5 339 34 101 23 145 40
251 91 95 46 101 50 185 115 144 112 244 239 337 427 23 48 43 91 43 96 0 4
-174 8 -387 8 l-387 -1 -39 -48 c-48 -62 -107 -104 -171 -124 -73 -23 -232
-27 -298 -8 -193 57 -333 231 -342 424 l-1 25 791 1 792 0 11 -50 c6 -28 13
-62 15 -76 5 -22 22 -89 30 -115 2 -5 8 -23 14 -38 7 -16 12 -31 12 -34 0 -15
85 -181 103 -200 11 -13 17 -23 13 -23 -4 0 4 -15 18 -32 14 -18 34 -44 43
-58 38 -52 191 -198 252 -240 129 -87 278 -148 431 -175 75 -13 274 -13 339 0
65 13 174 57 244 99 66 39 190 151 224 203 8 12 19 23 23 23 4 0 7 -42 6 -92
-1 -51 0 -100 2 -108 3 -13 215 -15 1848 -15 l1846 0 25 30 c34 39 136 155
193 218 54 61 71 80 132 149 25 29 62 71 82 93 l36 40 47 -51 c27 -28 75 -82
108 -119 33 -38 65 -73 70 -79 6 -6 44 -49 85 -96 41 -47 84 -94 95 -105 11
-11 31 -34 45 -50 l25 -30 513 0 c281 0 512 0 512 1 0 1 -10 12 -22 26 -27 29
-156 173 -178 198 -42 47 -148 166 -170 190 -14 15 -48 53 -77 86 -28 32 -62
71 -75 85 -88 97 -131 144 -188 209 -36 41 -74 84 -85 96 -11 12 -47 53 -80
90 -33 37 -68 74 -77 83 -25 22 -23 30 25 82 75 82 185 206 260 293 10 12 49
55 86 96 67 74 106 118 226 254 33 38 71 80 85 95 14 15 54 60 90 101 36 40
86 96 112 124 26 28 48 54 48 58 0 4 -161 7 -357 8 -197 0 -365 1 -373 1 -8 0
-47 0 -87 -1 -40 -1 -77 1 -82 5 -6 3 -11 2 -11 -3 0 -6 -15 -8 -33 -5 -30 4
-38 -1 -88 -58 -30 -34 -63 -72 -74 -85 -11 -12 -31 -35 -45 -51 -14 -15 -70
-80 -125 -143 -55 -63 -115 -132 -133 -152 l-34 -37 -31 37 c-18 20 -36 42
-42 48 -5 6 -44 48 -85 94 -41 45 -86 95 -100 110 -14 15 -63 69 -110 120 -47
51 -91 99 -98 106 -10 11 -88 14 -370 14 -196 0 -364 1 -372 1 -8 0 -45 0 -82
-1 -36 -1 -71 1 -77 4 -5 4 -12 2 -15 -3 -3 -4 -20 -6 -38 -4 -18 3 -39 5 -45
4 -7 0 -33 0 -58 0 -25 0 -51 0 -57 0 -7 0 -38 0 -68 -1 -116 0 -144 -1 -151
-6 -4 -2 -10 0 -14 6 -4 6 -11 8 -16 4 -6 -3 -34 -6 -62 -5 -86 2 -140 0 -148
-5 -4 -2 -10 0 -14 6 -4 6 -11 8 -16 4 -6 -3 -34 -6 -62 -5 -86 2 -140 0 -148
-5 -4 -2 -10 0 -14 6 -4 6 -11 7 -17 4 -12 -7 -264 -8 -276 0 -6 3 -9 453 -3
477 0 3 245 5 544 5 l542 0 3 382 2 382 -1352 -2 -1352 -3 0 -697 c0 -384 -3
-698 -6 -698 -4 0 -23 17 -41 38 -19 21 -50 49 -69 62 -19 13 -37 28 -41 32
-3 4 -39 25 -80 46 -64 33 -98 47 -144 57 -5 2 -29 8 -52 14 -144 39 -356 31
-548 -22 -317 -88 -597 -364 -725 -715 l-23 -64 -14 32 c-7 18 -13 37 -13 42
0 5 -24 57 -52 116 -172 350 -460 560 -858 627 -63 11 -123 14 -245 14 -141 0
-209 -5 -290 -24 -193 -43 -307 -90 -450 -184 -74 -49 -255 -217 -255 -237 0
-7 -3 -14 -7 -16 -12 -5 -63 -76 -63 -87 0 -5 -5 -13 -11 -16 -7 -5 -10 15 -9
61 1 38 1 139 1 225 l-1 156 -37 -6 c-21 -4 -55 -4 -75 -1 -21 4 -38 3 -38 -1
0 -4 -12 -5 -27 -2 -16 3 -32 5 -38 5 -81 -4 -156 -2 -164 3 -6 3 -11 2 -11
-4 0 -5 -10 -8 -22 -5 -26 6 -130 5 -136 0 -2 -2 -17 0 -33 4 -16 5 -29 6 -29
2 0 -8 -147 -5 -167 2 -7 3 -13 1 -13 -4 0 -5 -10 -7 -22 -4 -19 4 -111 6
-136 3 -4 -1 -22 -1 -40 0 l-32 1 2 243 3 242 553 0 c303 0 553 2 553 5 4 14
5 737 1 748 -3 9 -215 12 -1013 12 l-1009 0 2 -1712z m8648 445 c0 -5 23 -33
50 -63 28 -30 61 -67 73 -81 20 -23 144 -162 192 -215 11 -12 47 -52 80 -90
86 -98 137 -155 160 -179 11 -12 45 -50 75 -85 30 -35 66 -75 80 -90 14 -15
48 -54 76 -86 29 -33 62 -71 75 -85 13 -14 38 -42 56 -62 l32 -37 -27 -28
c-35 -38 -147 -163 -258 -291 -16 -18 -47 -53 -69 -76 -22 -24 -62 -69 -90
-100 -27 -32 -59 -67 -70 -79 -11 -12 -47 -53 -80 -91 -33 -37 -71 -80 -85
-95 -14 -15 -50 -56 -80 -90 -30 -35 -76 -87 -103 -115 -26 -29 -61 -68 -77
-86 l-30 -34 0 383 0 382 -545 0 c-300 0 -546 3 -546 8 -3 17 -5 648 -2 657 2
7 191 10 548 10 l545 0 0 362 c0 235 4 363 10 363 6 0 10 -3 10 -7z m-5540
-376 c147 -27 270 -131 318 -270 12 -34 22 -67 22 -72 0 -7 -146 -10 -427 -10
l-428 1 3 25 c1 14 16 54 32 88 49 102 170 205 265 227 76 18 153 22 215 11z
m2491 -123 c81 -32 158 -95 198 -165 20 -33 53 -100 56 -113 1 -6 5 -18 8 -26
40 -100 51 -319 22 -440 -3 -14 -8 -36 -11 -50 -11 -56 -76 -170 -125 -220
-140 -140 -361 -163 -544 -56 -134 79 -242 291 -241 473 1 40 -3 73 -7 73 -5
0 -5 4 -2 10 7 11 9 22 20 95 4 28 10 55 13 60 4 6 8 19 9 30 6 40 72 161 113
207 72 82 168 135 265 145 28 3 51 6 52 7 8 7 137 -16 174 -30z"/>
<path d="M6826 4823 c-3 -3 -26 -5 -51 -5 l-45 2 0 -614 0 -615 350 0 c261 0
350 3 351 12 0 7 2 22 3 34 5 47 4 48 -301 48 l-288 0 -1 67 c-1 36 -4 73 -7
81 -3 8 -3 18 1 21 3 4 5 78 4 165 -1 118 2 160 11 163 7 2 128 3 270 3 141
-1 257 1 258 4 6 38 3 73 -5 79 -6 5 -127 8 -269 8 -221 -1 -258 1 -262 14 -2
8 -4 110 -4 226 l1 210 273 1 c151 1 278 4 283 7 5 3 9 23 10 45 l2 40 -280 0
c-155 0 -284 3 -289 5 -4 3 -11 3 -15 -1z"/>
<path d="M8655 4441 c-34 -16 -76 -45 -97 -69 -40 -44 -45 -41 -43 31 l1 47
-50 0 -51 0 2 -582 c1 -321 2 -587 2 -591 1 -4 24 -7 53 -5 l51 3 -2 85 c-1
47 -2 92 -2 100 0 8 1 68 1 133 l1 119 35 -40 c50 -59 128 -94 214 -97 118 -5
196 21 271 92 170 159 174 535 7 702 -67 67 -135 94 -243 97 -80 2 -96 0 -150
-25z m243 -84 c125 -61 188 -242 153 -443 -32 -184 -167 -285 -329 -249 -137
31 -201 154 -197 376 3 130 25 205 78 265 70 80 191 101 295 51z"/>
<path d="M9633 4459 c-53 -15 -101 -48 -134 -92 -17 -23 -30 -35 -29 -27 1 8
2 36 1 63 l-1 47 -53 0 -52 0 1 -52 c1 -29 3 -223 3 -430 l1 -377 51 2 52 2 2
285 c1 157 3 285 4 285 2 0 4 11 7 24 20 111 122 188 233 179 l51 -5 0 54 0
53 -52 -1 c-29 0 -68 -5 -85 -10z"/>
<path d="M10090 4460 c-8 -5 -17 -7 -22 -4 -4 3 -15 1 -25 -5 -10 -5 -35 -17
-57 -27 -138 -67 -227 -308 -192 -519 12 -69 18 -91 42 -140 57 -116 155 -180
290 -191 122 -10 236 27 300 99 35 38 84 129 84 155 0 13 1 13 -52 16 -39 2
-36 4 -72 -73 -15 -32 -61 -78 -100 -98 -37 -20 -137 -26 -194 -11 -86 22
-172 138 -188 253 -3 28 -8 52 -10 54 -2 2 1 11 5 20 8 14 28 16 148 14 163
-4 136 -4 253 0 52 2 101 -1 108 -6 7 -6 12 -6 12 0 0 5 23 8 50 7 58 -4 57
-7 46 96 -7 73 -30 159 -56 208 -26 50 -96 116 -147 138 -43 18 -200 29 -223
14z m202 -106 c48 -33 97 -105 100 -147 1 -15 5 -27 8 -27 4 0 7 -22 9 -50 l2
-49 -256 1 -256 0 5 32 c10 62 34 124 65 169 55 80 111 108 213 104 56 -2 74
-8 110 -33z"/>
<path d="M10818 4456 c-66 -19 -115 -52 -143 -97 -31 -48 -46 -110 -32 -134 6
-12 6 -16 -1 -11 -18 11 13 -74 40 -108 39 -49 99 -80 232 -120 65 -20 135
-46 157 -58 116 -65 77 -234 -63 -268 -51 -13 -136 -9 -179 8 -58 23 -109 97
-109 160 0 14 -9 17 -51 17 l-51 0 5 -50 c16 -149 139 -230 334 -221 96 4 165
30 218 80 103 97 100 267 -6 345 -24 17 -90 45 -157 66 -209 66 -223 73 -251
127 -18 35 -8 111 18 137 39 39 83 55 156 55 92 0 145 -28 175 -91 11 -24 18
-48 15 -53 -4 -6 17 -10 49 -10 51 0 56 2 56 22 0 72 -51 147 -126 184 -46 22
-72 28 -147 30 -57 2 -110 -2 -139 -10z"/>
<path d="M11580 4467 c-3 -3 -17 -8 -30 -10 -14 -2 -38 -9 -53 -15 -16 -7 -31
-12 -34 -12 -11 0 -65 -57 -81 -85 -27 -51 -35 -127 -17 -172 8 -17 12 -33 9
-35 -7 -8 65 -77 97 -94 44 -22 169 -64 169 -56 0 3 5 1 12 -6 7 -7 22 -12 33
-12 12 0 25 -3 29 -7 4 -5 11 -8 14 -8 20 -1 102 -49 102 -60 0 -7 4 -15 10
-17 20 -7 19 -81 -2 -129 -29 -68 -83 -94 -193 -94 -120 1 -183 46 -202 145
l-9 45 -49 -1 c-43 0 -50 -3 -49 -20 8 -128 75 -207 203 -241 14 -4 69 -7 122
-6 82 0 105 5 157 28 69 31 104 64 127 118 39 94 27 192 -32 251 -44 44 -89
65 -228 106 -60 18 -123 39 -140 48 -71 36 -96 105 -63 173 45 96 244 116 320
32 21 -23 51 -93 41 -94 -5 -1 3 -4 16 -8 34 -9 91 -1 91 13 0 7 -7 35 -15 63
-30 101 -113 152 -259 160 -50 3 -93 3 -96 0z"/>
<path d="M7540 4443 c0 -6 136 -191 197 -268 40 -50 103 -138 103 -143 0 -4
-15 -26 -33 -48 -17 -23 -39 -52 -47 -64 -8 -12 -20 -28 -25 -34 -11 -11 -63
-80 -100 -132 -11 -15 -36 -48 -56 -74 -20 -25 -41 -55 -47 -66 -11 -20 -9
-21 47 -23 l59 -2 78 108 c42 60 91 127 108 151 17 24 42 57 55 74 l24 30 33
-39 c18 -21 33 -42 34 -46 0 -4 8 -16 18 -27 9 -10 55 -70 102 -133 l85 -115
63 0 c34 0 62 2 62 4 0 7 -301 403 -311 410 -12 7 -11 32 1 47 6 7 32 41 58
77 26 36 51 70 57 76 5 6 19 23 30 38 11 16 25 33 30 40 6 6 32 40 59 76 27
36 53 71 59 78 7 9 -5 12 -55 12 l-64 0 -104 -142 c-58 -78 -114 -155 -124
-171 -16 -24 -21 -27 -30 -15 -6 8 -23 30 -38 49 -14 19 -68 89 -118 157 l-92
122 -59 0 c-32 0 -59 -3 -59 -7z"/>
</g>
</svg>
